HIERARCHY
ROOT mixamorig:Hips
{
	OFFSET -0.000008 104.274872 1.554316
	CHANNELS 6 Xposition Yposition Zposition Xrotation Yrotation Zrotation
	JOINT mixamorig:Spine
	{
		OFFSET -0.000005 10.181595 0.131519
		CHANNELS 6 Xposition Yposition Zposition Xrotation Yrotation Zrotation
		JOINT mixamorig:Spine1
		{
			OFFSET -0.000000 9.893959 -1.470707
			CHANNELS 6 Xposition Yposition Zposition Xrotation Yrotation Zrotation
			JOINT mixamorig:Spine2
			{
				OFFSET -0.000000 9.220757 -1.370641
				CHANNELS 6 Xposition Yposition Zposition Xrotation Yrotation Zrotation
				JOINT mixamorig:Neck
				{
					OFFSET 0.000001 16.740417 -2.049036
					CHANNELS 6 Xposition Yposition Zposition Xrotation Yrotation Zrotation
					JOINT mixamorig:Head
					{
						OFFSET 0.000000 9.617874 1.685006
						CHANNELS 6 Xposition Yposition Zposition Xrotation Yrotation Zrotation
						JOINT mixamorig:HeadTop_End
						{
							OFFSET 0.000002 22.037354 7.501101
							CHANNELS 6 Xposition Yposition Zposition Xrotation Yrotation Zrotation
							End Site
							{
								OFFSET 0.000168 2310.654297 -282.823242
							}
						}
					}
				}
				JOINT mixamorig:RightShoulder
				{
					OFFSET -4.569970 11.014908 -2.160885
					CHANNELS 6 Xposition Yposition Zposition Xrotation Yrotation Zrotation
					JOINT mixamorig:RightArm
					{
						OFFSET -10.592851 -0.524811 -2.232101
						CHANNELS 6 Xposition Yposition Zposition Xrotation Yrotation Zrotation
						JOINT mixamorig:RightForeArm
						{
							OFFSET -27.841511 0.000031 -0.000004
							CHANNELS 6 Xposition Yposition Zposition Xrotation Yrotation Zrotation
							JOINT mixamorig:RightHand
							{
								OFFSET -28.328831 -0.000015 0.000015
								CHANNELS 6 Xposition Yposition Zposition Xrotation Yrotation Zrotation
								JOINT mixamorig:RightHandThumb1
								{
									OFFSET -2.464806 -1.573990 2.681852
									CHANNELS 6 Xposition Yposition Zposition Xrotation Yrotation Zrotation
									JOINT mixamorig:RightHandThumb2
									{
										OFFSET -3.215179 -1.872803 1.924282
										CHANNELS 6 Xposition Yposition Zposition Xrotation Yrotation Zrotation
										JOINT mixamorig:RightHandThumb3
										{
											OFFSET -2.654831 -1.527969 1.512609
											CHANNELS 6 Xposition Yposition Zposition Xrotation Yrotation Zrotation
											JOINT mixamorig:RightHandThumb4
											{
												OFFSET -2.018814 -1.152008 1.108052
												CHANNELS 6 Xposition Yposition Zposition Xrotation Yrotation Zrotation
												End Site
												{
													OFFSET -188.809540 -114.533607 132.431396
												}
											}
										}
									}
								}
								JOINT mixamorig:RightHandIndex1
								{
									OFFSET -9.108284 -0.517868 2.259835
									CHANNELS 6 Xposition Yposition Zposition Xrotation Yrotation Zrotation
									JOINT mixamorig:RightHandIndex2
									{
										OFFSET -3.699989 0.000000 0.001215
										CHANNELS 6 Xposition Yposition Zposition Xrotation Yrotation Zrotation
										JOINT mixamorig:RightHandIndex3
										{
											OFFSET -2.850006 0.000031 -0.000522
											CHANNELS 6 Xposition Yposition Zposition Xrotation Yrotation Zrotation
											JOINT mixamorig:RightHandIndex4
											{
												OFFSET -2.772186 -0.000015 -0.000020
												CHANNELS 6 Xposition Yposition Zposition Xrotation Yrotation Zrotation
												End Site
												{
													OFFSET -277.218445 0.000000 -0.050231
												}
											}
										}
									}
								}
								JOINT mixamorig:RightHandMiddle1
								{
									OFFSET -9.532516 -0.000031 -0.000023
									CHANNELS 6 Xposition Yposition Zposition Xrotation Yrotation Zrotation
									JOINT mixamorig:RightHandMiddle2
									{
										OFFSET -3.700005 -0.000015 0.003713
										CHANNELS 6 Xposition Yposition Zposition Xrotation Yrotation Zrotation
										JOINT mixamorig:RightHandMiddle3
										{
											OFFSET -2.949974 0.000015 -0.002054
											CHANNELS 6 Xposition Yposition Zposition Xrotation Yrotation Zrotation
											JOINT mixamorig:RightHandMiddle4
											{
												OFFSET -2.946640 0.000000 -0.000156
												CHANNELS 6 Xposition Yposition Zposition Xrotation Yrotation Zrotation
												End Site
												{
													OFFSET -294.664337 0.000000 -0.113670
												}
											}
										}
									}
								}
								JOINT mixamorig:RightHandRing1
								{
									OFFSET -9.103600 -0.043076 -1.865134
									CHANNELS 6 Xposition Yposition Zposition Xrotation Yrotation Zrotation
									JOINT mixamorig:RightHandRing2
									{
										OFFSET -3.379288 0.000000 -0.001055
										CHANNELS 6 Xposition Yposition Zposition Xrotation Yrotation Zrotation
										JOINT mixamorig:RightHandRing3
										{
											OFFSET -2.889687 -0.000015 0.000379
											CHANNELS 6 Xposition Yposition Zposition Xrotation Yrotation Zrotation
											JOINT mixamorig:RightHandRing4
											{
												OFFSET -2.638809 -0.000015 0.000941
												CHANNELS 6 Xposition Yposition Zposition Xrotation Yrotation Zrotation
												End Site
												{
													OFFSET -263.880371 0.000000 0.516020
												}
											}
										}
									}
								}
								JOINT mixamorig:RightHandPinky1
								{
									OFFSET -8.076683 -0.486710 -3.806280
									CHANNELS 6 Xposition Yposition Zposition Xrotation Yrotation Zrotation
									JOINT mixamorig:RightHandPinky2
									{
										OFFSET -3.600014 -0.000015 -0.003747
										CHANNELS 6 Xposition Yposition Zposition Xrotation Yrotation Zrotation
										JOINT mixamorig:RightHandPinky3
										{
											OFFSET -2.099983 0.000000 -0.005739
											CHANNELS 6 Xposition Yposition Zposition Xrotation Yrotation Zrotation
											JOINT mixamorig:RightHandPinky4
											{
												OFFSET -2.115768 -0.000031 -0.003680
												CHANNELS 6 Xposition Yposition Zposition Xrotation Yrotation Zrotation
												End Site
												{
													OFFSET -211.577087 0.000000 -0.350686
												}
											}
										}
									}
								}
							}
						}
					}
				}
				JOINT mixamorig:LeftShoulder
				{
					OFFSET 4.570447 11.014725 -2.160855
					CHANNELS 6 Xposition Yposition Zposition Xrotation Yrotation Zrotation
					JOINT mixamorig:LeftArm
					{
						OFFSET 10.592371 -0.524597 -2.232119
						CHANNELS 6 Xposition Yposition Zposition Xrotation Yrotation Zrotation
						JOINT mixamorig:LeftForeArm
						{
							OFFSET 27.841532 -0.000031 0.000026
							CHANNELS 6 Xposition Yposition Zposition Xrotation Yrotation Zrotation
							JOINT mixamorig:LeftHand
							{
								OFFSET 28.328846 -0.000061 0.000022
								CHANNELS 6 Xposition Yposition Zposition Xrotation Yrotation Zrotation
								JOINT mixamorig:LeftHandThumb1
								{
									OFFSET 2.466141 -1.576172 2.681732
									CHANNELS 6 Xposition Yposition Zposition Xrotation Yrotation Zrotation
									JOINT mixamorig:LeftHandThumb2
									{
										OFFSET 3.217812 -1.872070 1.916482
										CHANNELS 6 Xposition Yposition Zposition Xrotation Yrotation Zrotation
										JOINT mixamorig:LeftHandThumb3
										{
											OFFSET 2.656029 -1.528778 1.514513
											CHANNELS 6 Xposition Yposition Zposition Xrotation Yrotation Zrotation
											JOINT mixamorig:LeftHandThumb4
											{
												OFFSET 2.020889 -1.154053 1.115139
												CHANNELS 6 Xposition Yposition Zposition Xrotation Yrotation Zrotation
												End Site
												{
													OFFSET 190.885437 -115.081749 130.048782
												}
											}
										}
									}
								}
								JOINT mixamorig:LeftHandIndex1
								{
									OFFSET 9.109314 -0.518021 2.259871
									CHANNELS 6 Xposition Yposition Zposition Xrotation Yrotation Zrotation
									JOINT mixamorig:LeftHandIndex2
									{
										OFFSET 3.699989 0.000000 -0.000322
										CHANNELS 6 Xposition Yposition Zposition Xrotation Yrotation Zrotation
										JOINT mixamorig:LeftHandIndex3
										{
											OFFSET 2.850006 0.000000 0.000352
											CHANNELS 6 Xposition Yposition Zposition Xrotation Yrotation Zrotation
											JOINT mixamorig:LeftHandIndex4
											{
												OFFSET 2.774864 -0.000031 -0.000027
												CHANNELS 6 Xposition Yposition Zposition Xrotation Yrotation Zrotation
												End Site
												{
													OFFSET 277.486267 0.000000 -0.009857
												}
											}
										}
									}
								}
								JOINT mixamorig:LeftHandMiddle1
								{
									OFFSET 9.533394 0.000061 0.000044
									CHANNELS 6 Xposition Yposition Zposition Xrotation Yrotation Zrotation
									JOINT mixamorig:LeftHandMiddle2
									{
										OFFSET 3.699989 -0.000015 -0.000231
										CHANNELS 6 Xposition Yposition Zposition Xrotation Yrotation Zrotation
										JOINT mixamorig:LeftHandMiddle3
										{
											OFFSET 2.949997 -0.000015 -0.000059
											CHANNELS 6 Xposition Yposition Zposition Xrotation Yrotation Zrotation
											JOINT mixamorig:LeftHandMiddle4
											{
												OFFSET 2.952896 0.000031 0.000063
												CHANNELS 6 Xposition Yposition Zposition Xrotation Yrotation Zrotation
												End Site
												{
													OFFSET 295.289337 0.000000 0.022810
												}
											}
										}
									}
								}
								JOINT mixamorig:LeftHandRing1
								{
									OFFSET 9.104523 -0.042999 -1.865074
									CHANNELS 6 Xposition Yposition Zposition Xrotation Yrotation Zrotation
									JOINT mixamorig:LeftHandRing2
									{
										OFFSET 3.150009 -0.000031 0.000043
										CHANNELS 6 Xposition Yposition Zposition Xrotation Yrotation Zrotation
										JOINT mixamorig:LeftHandRing3
										{
											OFFSET 2.949982 -0.000015 0.000040
											CHANNELS 6 Xposition Yposition Zposition Xrotation Yrotation Zrotation
											JOINT mixamorig:LeftHandRing4
											{
												OFFSET 2.644348 0.000000 0.000057
												CHANNELS 6 Xposition Yposition Zposition Xrotation Yrotation Zrotation
												End Site
												{
													OFFSET 264.434631 0.000000 0.012105
												}
											}
										}
									}
								}
								JOINT mixamorig:LeftHandPinky1
								{
									OFFSET 8.077789 -0.486847 -3.806259
									CHANNELS 6 Xposition Yposition Zposition Xrotation Yrotation Zrotation
									JOINT mixamorig:LeftHandPinky2
									{
										OFFSET 3.599953 0.000031 0.014727
										CHANNELS 6 Xposition Yposition Zposition Xrotation Yrotation Zrotation
										JOINT mixamorig:LeftHandPinky3
										{
											OFFSET 2.100021 0.000015 0.007705
											CHANNELS 6 Xposition Yposition Zposition Xrotation Yrotation Zrotation
											JOINT mixamorig:LeftHandPinky4
											{
												OFFSET 2.125504 0.000031 0.007517
												CHANNELS 6 Xposition Yposition Zposition Xrotation Yrotation Zrotation
												End Site
												{
													OFFSET 212.550781 0.000000 0.625752
												}
											}
										}
									}
								}
							}
						}
					}
				}
			}
		}
	}
	JOINT mixamorig:RightUpLeg
	{
		OFFSET -8.207787 -6.751648 -1.599560
		CHANNELS 6 Xposition Yposition Zposition Xrotation Yrotation Zrotation
		JOINT mixamorig:RightLeg
		{
			OFFSET -0.000002 -44.370117 0.345942
			CHANNELS 6 Xposition Yposition Zposition Xrotation Yrotation Zrotation
			JOINT mixamorig:RightFoot
			{
				OFFSET 0.000003 -44.423679 -3.043532
				CHANNELS 6 Xposition Yposition Zposition Xrotation Yrotation Zrotation
				JOINT mixamorig:RightToeBase
				{
					OFFSET -0.000002 -8.728671 10.710558
					CHANNELS 6 Xposition Yposition Zposition Xrotation Yrotation Zrotation
					JOINT mixamorig:RightToe_End
					{
						OFFSET -0.000001 -0.000679 9.278119
						CHANNELS 6 Xposition Yposition Zposition Xrotation Yrotation Zrotation
						End Site
						{
							OFFSET 0.000000 -0.067690 927.812134
						}
					}
				}
			}
		}
	}
	JOINT mixamorig:LeftUpLeg
	{
		OFFSET 8.207793 -6.751686 -1.599556
		CHANNELS 6 Xposition Yposition Zposition Xrotation Yrotation Zrotation
		JOINT mixamorig:LeftLeg
		{
			OFFSET -0.000004 -44.370014 0.346954
			CHANNELS 6 Xposition Yposition Zposition Xrotation Yrotation Zrotation
			JOINT mixamorig:LeftFoot
			{
				OFFSET -0.000001 -44.423672 -3.044401
				CHANNELS 6 Xposition Yposition Zposition Xrotation Yrotation Zrotation
				JOINT mixamorig:LeftToeBase
				{
					OFFSET -0.000002 -8.728669 10.710558
					CHANNELS 6 Xposition Yposition Zposition Xrotation Yrotation Zrotation
					JOINT mixamorig:LeftToe_End
					{
						OFFSET -0.000003 -0.000679 9.278133
						CHANNELS 6 Xposition Yposition Zposition Xrotation Yrotation Zrotation
						End Site
						{
							OFFSET 0.000000 -0.068021 927.813477
						}
					}
				}
			}
		}
	}
}
MOTION
Frames: 3
Frame Time: 0.033333
0.000006 104.270477 1.554256 0.000010 0.000003 -0.000113 -0.000005 10.181587 0.131522 0.000001 -0.000003 0.000084 -0.000000 9.893967 -1.470711 0.000001 0.000000 -0.000000 -0.000000 9.220802 -1.370642 0.000000 -0.000000 -0.000000 0.000001 16.740433 -2.049030 0.000000 -0.000000 -0.000000 0.000000 9.617859 1.685014 0.000000 0.000000 0.000000 0.000002 22.037384 7.501101 0.000000 -0.000000 0.000000 -4.569968 11.014880 -2.160881 0.000008 0.000001 -0.000038 -10.592798 -0.524832 -2.231761 67.026251 62.729584 -43.963879 -27.841507 0.000028 0.000566 56.174870 103.887799 -68.563522 -28.328835 0.000005 0.000022 -0.000320 -0.000045 0.000007 -2.464583 -1.574223 2.682130 91.591723 -139.734865 143.802871 -3.214839 -1.872995 1.924679 216.379013 -47.757058 -83.501139 -2.654437 -1.528012 1.513127 161.436835 -34.669101 -144.940029 -2.018838 -1.152017 1.108072 -0.000003 -0.000003 0.000004 -9.108221 -0.517728 2.260446 206.758719 13.449577 -307.203003 -3.699950 0.000122 0.001806 209.142004 10.815016 -320.017777 -2.849993 0.000125 0.000046 208.091671 6.999799 27.473111 -2.772177 -0.000016 -0.000015 0.000003 0.000002 -0.000001 -9.532244 0.000019 0.000565 181.697512 10.173230 -199.934841 -3.699727 0.000201 0.004288 184.017276 5.832602 -248.751009 -2.949818 -0.000072 -0.001486 178.639090 4.193018 216.148412 -2.946614 0.000004 -0.000145 0.000004 -0.000004 -0.000001 -9.103345 -0.043066 -1.864545 179.972138 12.731481 -179.428373 -3.379207 -0.000180 -0.000997 323.153981 -15.058515 -5.034723 -2.889614 -0.000016 0.000343 353.434122 -18.488026 -1.060799 -2.638808 -0.000002 0.000948 0.000002 -0.000002 -0.000001 -8.076567 -0.486488 -3.805691 189.316083 5.800691 -296.665824 -3.599813 -0.000227 -0.003665 315.904937 -35.155171 -14.847704 -2.099815 -0.000024 -0.005796 352.408173 -27.383335 -1.913355 -2.115765 -0.000049 -0.003685 0.000001 -0.000000 -0.000005 4.570446 11.014691 -2.160851 -0.000018 0.000010 -0.000021 10.592520 -0.524537 -2.232396 67.182915 -63.451515 44.648250 27.841743 -0.000083 -0.000113 241.891860 -77.913949 253.117931 28.328840 -0.000029 0.000013 0.000019 -0.000089 -0.000000 2.466154 -1.576147 2.681892 94.409299 138.252441 -145.003386 3.217741 -1.872045 1.916530 -144.705877 54.971056 89.305140 2.655858 -1.528833 1.514637 166.676068 45.968887 -217.105691 2.020883 -1.154070 1.115147 0.000004 0.000005 0.000006 9.109124 -0.517707 2.260029 202.940930 -12.660184 302.685543 3.699780 0.000314 -0.000178 200.300980 -12.605328 296.638804 2.849821 0.000344 0.000493 201.363075 -10.072653 309.915872 2.774877 -0.000044 -0.000036 0.000002 0.000001 0.000001 9.533241 0.000028 0.000125 179.826587 -9.879398 177.909380 3.699973 -0.000028 -0.000158 177.212823 -7.751583 140.454275 2.950050 -0.000001 -0.000002 175.254499 -9.549299 487.265094 2.952871 -0.000031 0.000064 -0.000000 -0.000002 0.000001 9.104284 -0.042961 -1.864984 183.398693 -10.270929 216.547610 3.149999 0.000002 0.000091 132.777880 -216.592224 196.446909 2.949967 0.000005 -0.000016 3.449634 18.436854 -0.560228 2.644323 0.000015 0.000063 0.000003 -0.000002 0.000001 8.077579 -0.486524 -3.806135 192.456808 -6.772995 -58.368181 3.599946 0.000035 0.014785 -73.496551 55.987723 42.801568 2.099954 -0.000006 0.007634 2.212733 34.243389 -0.799576 2.125519 -0.000017 0.007521 0.000004 0.000007 0.000003 -8.207786 -6.751667 -1.599560 -0.077001 -0.000003 0.000080 -0.000002 -44.370110 0.345938 0.153719 -0.000000 -0.000000 0.000000 -44.423679 -3.043532 -0.076700 0.000000 -0.000002 -0.000006 -8.728667 10.710559 -0.000009 -0.000000 -0.000000 -0.000001 -0.000679 9.278123 0.000000 -0.000000 -0.000000 8.207792 -6.751710 -1.599556 -0.074518 -0.000003 0.000081 -0.000002 -44.370014 0.346960 0.148822 0.000002 0.000000 -0.000001 -44.423664 -3.044403 -0.074314 0.000000 -0.000002 -0.000004 -8.728671 10.710558 0.000007 -0.000000 -0.000000 0.000000 -0.000680 9.278137 -0.000000 0.000000 -0.000001 
0.000006 104.270477 1.554256 0.000010 0.000003 -0.000113 -0.000005 10.181587 0.131522 0.000001 -0.000003 0.000084 -0.000000 9.893967 -1.470711 0.000001 0.000000 -0.000000 -0.000000 9.220802 -1.370642 0.000000 -0.000000 -0.000000 0.000001 16.740433 -2.049030 0.000000 -0.000000 -0.000000 0.000000 9.617859 1.685014 0.000000 0.000000 0.000000 0.000002 22.037384 7.501101 0.000000 -0.000000 0.000000 -4.569968 11.014880 -2.160881 0.000008 0.000001 -0.000038 -10.592804 -0.524837 -2.231766 67.570966 61.691723 -43.560826 -27.841503 0.000024 0.000561 53.897689 102.170177 -64.399941 -28.328831 0.000020 0.000029 -0.000324 -0.000046 0.000005 -2.464555 -1.574226 2.682202 64.642556 -135.264424 123.794187 -3.214909 -1.873027 1.924610 241.990542 -42.953625 -58.726171 -2.654652 -1.528272 1.512911 256.049749 -33.336360 -45.151409 -2.018827 -1.152018 1.108070 -0.000004 -0.000000 0.000002 -9.108276 -0.517850 2.260402 227.833609 28.922463 -299.627667 -3.699990 0.000049 0.001780 228.289224 23.491611 -310.243803 -2.850026 -0.000018 -0.000006 241.635946 16.182170 26.807439 -2.772164 -0.000013 -0.000018 -0.000000 -0.000003 -0.000003 -9.532337 -0.000068 0.000564 175.832743 21.323593 -158.820736 -3.700043 0.000076 0.004272 162.827475 9.152967 -415.226734 -2.950025 0.000081 -0.001507 164.837723 8.835913 299.783150 -2.946624 0.000000 -0.000159 0.000001 0.000001 -0.000000 -9.103555 -0.043105 -1.864562 165.564113 20.795990 -110.552342 -3.379301 0.000120 -0.000523 166.405005 3.811169 -31.341327 -2.889642 0.000299 0.000910 530.182834 -2.954977 33.127497 -2.638794 0.000000 0.000942 0.000001 -0.000000 0.000000 -8.076582 -0.486740 -3.805708 171.129160 13.404865 -471.965197 -3.599974 0.000204 -0.003209 170.989524 -0.868488 14.415563 -2.099836 0.000314 -0.005196 174.420000 -2.879643 56.087734 -2.115772 -0.000055 -0.003676 -0.000002 -0.000001 -0.000005 4.570446 11.014691 -2.160851 -0.000018 0.000010 -0.000021 10.592525 -0.524531 -2.232398 68.180396 -62.849085 44.932205 27.841757 -0.000037 -0.000119 242.787735 -79.824749 252.224351 28.328829 -0.000014 0.000025 0.000019 -0.000087 0.000001 2.466155 -1.576151 2.681872 86.501498 131.402171 -137.645756 3.217768 -1.872059 1.916535 -141.250375 55.637352 86.376048 2.655914 -1.528840 1.514588 188.156590 50.979347 -242.378880 2.020890 -1.154068 1.115152 0.000002 0.000003 0.000006 9.109089 -0.517755 2.260040 206.123348 -19.927709 285.737248 3.699722 0.000200 -0.000180 197.898297 -19.364435 265.418993 2.849735 0.000238 0.000496 194.435774 -16.245904 263.165686 2.774870 -0.000029 -0.000034 0.000001 -0.000001 -0.000002 9.533392 0.000038 0.000109 174.490419 -15.103360 140.037702 3.700140 0.000207 -0.000229 155.694026 -13.721086 58.371234 2.950130 0.000209 -0.000092 144.152003 -17.131453 409.949648 2.952866 -0.000019 0.000059 -0.000001 0.000000 -0.000003 9.104543 -0.043027 -1.865017 175.654352 -12.633504 142.178625 3.149697 0.000392 0.000036 168.291968 -350.265269 280.577997 2.949594 0.000038 0.000027 -3.730686 156.963922 18.154064 2.644332 0.000015 0.000060 -0.000001 0.000000 0.000000 8.077746 -0.486884 -3.806189 177.319087 -8.969959 -206.340520 3.599804 -0.000024 0.014778 1.844827 166.510176 -19.572208 2.099982 -0.000005 0.007769 14.959760 153.828660 -60.980564 2.125513 0.000002 0.007509 -0.000000 0.000001 0.000002 -8.207786 -6.751667 -1.599560 -0.077001 -0.000003 0.000080 -0.000002 -44.370110 0.345938 0.153719 -0.000000 -0.000000 0.000000 -44.423679 -3.043532 -0.076700 0.000000 -0.000002 -0.000006 -8.728667 10.710559 -0.000009 -0.000000 -0.000000 -0.000001 -0.000679 9.278123 0.000000 -0.000000 -0.000000 8.207792 -6.751710 -1.599556 -0.074518 -0.000003 0.000081 -0.000002 -44.370014 0.346960 0.148822 0.000002 0.000000 -0.000001 -44.423664 -3.044403 -0.074314 0.000000 -0.000002 -0.000004 -8.728671 10.710558 0.000007 -0.000000 -0.000000 0.000000 -0.000680 9.278137 -0.000000 0.000000 -0.000001 
0.000006 104.270477 1.554256 0.000010 0.000003 -0.000113 -0.000005 10.181587 0.131522 0.000001 -0.000003 0.000084 -0.000000 9.893967 -1.470711 0.000001 0.000000 -0.000000 -0.000000 9.220802 -1.370642 0.000000 -0.000000 -0.000000 0.000001 16.740433 -2.049030 0.000000 -0.000000 -0.000000 0.000000 9.617859 1.685014 0.000000 0.000000 0.000000 0.000002 22.037384 7.501101 0.000000 -0.000000 0.000000 -4.569968 11.014880 -2.160881 0.000008 0.000001 -0.000038 -10.592802 -0.524837 -2.231769 67.782347 61.479810 -43.552268 -27.841507 0.000010 0.000566 49.360254 100.156398 -57.548107 -28.328829 0.000019 0.000023 -0.000325 -0.000043 0.000007 -2.464522 -1.574222 2.682162 73.442313 -129.724062 127.722652 -3.214922 -1.873062 1.924570 250.513198 -41.724253 -51.841566 -2.654685 -1.528280 1.512893 263.205438 -27.842458 -38.513593 -2.018833 -1.152022 1.108057 -0.000003 0.000002 0.000002 -9.108305 -0.517853 2.260399 230.600737 24.208120 -311.168283 -3.700027 -0.000056 0.001710 247.590423 20.109067 -330.340132 -2.850054 -0.000079 -0.000071 258.609185 15.644897 19.052657 -2.772163 -0.000015 -0.000020 0.000000 -0.000001 -0.000000 -9.532347 -0.000033 0.000578 179.482359 27.449026 -178.357590 -3.700067 0.000174 0.004209 146.684296 11.061707 -395.541992 -2.950043 0.000250 -0.001598 144.123111 5.894898 341.947383 -2.946639 -0.000013 -0.000157 -0.000001 -0.000002 -0.000000 -9.103548 -0.043098 -1.864554 166.604092 22.054394 -117.636539 -3.379278 0.000242 -0.000558 156.871536 -0.580574 2.765184 -2.889579 0.000360 0.000866 520.453858 -8.088138 44.515727 -2.638806 -0.000016 0.000945 0.000000 0.000001 0.000002 -8.076595 -0.486725 -3.805698 169.666011 15.419939 -471.498450 -3.599939 0.000193 -0.003203 173.576854 -0.971762 21.575430 -2.099526 0.000081 -0.005195 179.509379 -4.543285 163.458653 -2.115773 -0.000055 -0.003677 0.000000 -0.000001 -0.000004 4.570446 11.014691 -2.160851 -0.000018 0.000010 -0.000021 10.592525 -0.524527 -2.232396 68.400144 -62.930528 45.164349 27.841751 -0.000038 -0.000126 241.685151 -81.743158 249.214068 28.328840 -0.000014 0.000021 0.000022 -0.000090 -0.000000 2.466198 -1.576084 2.681905 88.218621 158.822361 -147.957866 3.217862 -1.871936 1.916553 -101.645858 25.220820 39.349437 2.656086 -1.528705 1.514646 263.687676 16.416913 -326.508150 2.020895 -1.154087 1.115153 0.000002 0.000003 0.000004 9.109306 -0.518026 2.259946 308.503935 -102.891042 297.625985 3.699970 -0.000031 -0.000249 157.307945 -59.147123 141.081328 2.849876 0.000026 0.000473 183.237037 -48.990242 187.095110 2.774887 -0.000031 -0.000031 -0.000001 0.000001 0.000000 9.533452 0.000073 0.000093 158.036193 -34.038555 115.227422 3.700000 -0.000037 -0.000158 170.815805 -24.166350 138.855615 2.949900 -0.000027 0.000040 179.162077 -30.476273 536.933902 2.952869 -0.000015 0.000067 0.000001 -0.000001 -0.000001 9.104615 -0.042969 -1.865045 159.298357 -30.255849 111.919691 3.149687 0.000081 0.000154 182.891948 -377.018164 199.161472 2.949708 0.000400 0.000208 21.062304 193.143393 116.425041 2.644325 0.000031 0.000059 0.000000 -0.000000 0.000000 8.077768 -0.486880 -3.806189 173.970751 -22.535108 -206.887851 3.599677 0.000082 0.014815 1.254352 188.460342 21.324474 2.099668 0.000317 0.007819 7.849991 187.573811 91.980368 2.125504 0.000000 0.007509 0.000001 -0.000000 0.000000 -8.207786 -6.751667 -1.599560 -0.077001 -0.000003 0.000080 -0.000002 -44.370110 0.345938 0.153719 -0.000000 -0.000000 0.000000 -44.423679 -3.043532 -0.076700 0.000000 -0.000002 -0.000006 -8.728667 10.710559 -0.000009 -0.000000 -0.000000 -0.000001 -0.000679 9.278123 0.000000 -0.000000 -0.000000 8.207792 -6.751710 -1.599556 -0.074518 -0.000003 0.000081 -0.000002 -44.370014 0.346960 0.148822 0.000002 0.000000 -0.000001 -44.423664 -3.044403 -0.074314 0.000000 -0.000002 -0.000004 -8.728671 10.710558 0.000007 -0.000000 -0.000000 0.000000 -0.000680 9.278137 -0.000000 0.000000 -0.000001 
